<?xml version="1.0" standalone="no"?>
<!DOCTYPE svg PUBLIC "-//W3C//DTD SVG 20010904//EN"
 "http://www.w3.org/TR/2001/REC-SVG-20010904/DTD/svg10.dtd">
<svg version="1.0" xmlns="http://www.w3.org/2000/svg"
 width="1024.000000pt" height="1024.000000pt" viewBox="0 0 1024.000000 1024.000000"
 preserveAspectRatio="xMidYMid meet">

<g transform="translate(0.000000,1024.000000) scale(0.100000,-0.100000)"
fill="#F4C430" stroke="none">
<path d="M4985 8168 c-111 -113 -178 -197 -291 -365 -48 -70 -89 -130 -90
-132 -1 -1 -13 7 -26 19 -127 120 -307 250 -480 348 -136 77 -142 79 -171 50
-41 -41 -136 -364 -137 -465 l0 -41 138 -70 c502 -253 851 -598 1124 -1109
l51 -95 42 78 c165 306 269 449 483 668 105 106 254 226 403 322 82 53 355
194 376 194 22 0 15 66 -22 213 -41 163 -92 295 -121 314 -20 13 -31 9 -128
-42 -176 -92 -301 -179 -454 -315 l-76 -68 -56 83 c-81 118 -141 194 -256 325
-119 136 -167 180 -197 180 -14 0 -53 -32 -112 -92z"/>
<path d="M3070 7520 c0 -11 12 -45 26 -77 71 -158 128 -351 164 -553 18 -95
23 -181 30 -505 7 -321 12 -411 29 -508 112 -642 414 -1097 917 -1386 161 -92
417 -176 614 -203 l90 -12 0 -765 -1 -766 -30 80 c-167 434 -266 619 -451 840
-351 420 -881 703 -1491 796 -171 26 -588 37 -627 17 -42 -22 -36 -58 44 -288
169 -488 205 -580 297 -760 323 -631 809 -1016 1458 -1154 64 -14 190 -39 280
-56 169 -32 317 -78 399 -125 26 -15 92 -74 148 -131 93 -96 104 -104 139
-104 35 0 45 8 134 100 164 171 234 200 716 295 283 56 438 106 635 206 510
259 849 679 1103 1364 115 312 208 598 202 622 -3 13 -18 28 -33 34 -38 15
-426 5 -577 -15 -244 -33 -557 -124 -777 -227 -233 -109 -379 -202 -543 -346
-277 -245 -477 -547 -625 -943 -15 -41 -36 -93 -46 -115 l-18 -40 -7 30 c-3
17 -7 349 -8 738 -1 558 2 708 12 711 6 2 66 14 132 26 487 90 922 375 1178
770 134 208 239 481 293 769 24 123 27 171 34 501 9 372 20 495 61 688 28 128
82 294 130 398 41 91 43 114 10 114 -25 0 -147 -45 -314 -116 -455 -194 -759
-384 -991 -619 -267 -270 -455 -599 -528 -923 -20 -90 -22 -130 -25 -554 -4
-375 -2 -458 9 -458 22 0 114 47 180 91 81 55 210 184 277 279 175 249 390
825 481 1294 17 83 58 127 126 133 96 8 159 -54 156 -155 -3 -111 -76 -404
-163 -659 -223 -647 -443 -989 -758 -1176 -140 -83 -323 -137 -467 -137 -56 0
-67 3 -96 29 l-33 29 -1 539 c0 296 -4 565 -8 598 -20 166 -90 376 -185 563
-270 524 -718 878 -1503 1188 -149 59 -198 67 -198 34z m378 -3665 c368 -124
654 -356 857 -696 87 -147 92 -224 20 -288 -29 -25 -44 -31 -84 -31 -70 0
-104 28 -168 139 -163 286 -402 486 -724 606 -108 40 -134 56 -159 98 -39 63
-15 146 52 187 46 28 85 25 206 -15z m3538 -5 c62 -61 65 -147 7 -202 -16 -14
-62 -38 -103 -53 -222 -78 -388 -182 -545 -340 -105 -106 -144 -159 -239 -328
-35 -61 -76 -87 -139 -87 -42 0 -53 5 -88 38 -33 31 -42 46 -46 83 -5 40 1 56
47 144 83 161 156 262 275 381 164 164 346 278 595 369 125 46 184 45 236 -5z"/>
</g>
</svg>
